<svg width="19" height="19" viewBox="0 0 19 19" fill="none" xmlns="http://www.w3.org/2000/svg">
<g clip-path="url(#clip0_110_9)">
<path d="M19 9.5C19.0014 10.0307 18.9563 10.5605 18.8654 11.0833C18.8219 11.3525 18.7665 11.6177 18.6992 11.875C18.3807 13.1267 17.8096 14.3 17.0208 15.3227C16.9179 15.4573 16.811 15.5919 16.6962 15.7185C16.5245 15.9207 16.3421 16.1136 16.15 16.2965C15.9029 16.5495 15.6383 16.785 15.3583 17.001C14.3267 17.8012 13.1408 18.3793 11.875 18.6992C11.6177 18.7665 11.3525 18.8219 11.0833 18.8654C10.0354 19.0449 8.96459 19.0449 7.91666 18.8654C7.6475 18.8219 7.38229 18.7665 7.125 18.6992C5.87332 18.3807 4.70003 17.8096 3.67729 17.0208C3.54271 16.9179 3.40812 16.811 3.28146 16.6962C3.07934 16.5245 2.88644 16.3421 2.70354 16.15C2.45047 15.9029 2.21503 15.6384 1.99895 15.3583C1.19882 14.3267 0.620667 13.1408 0.30083 11.875C0.233538 11.6177 0.178122 11.3525 0.13458 11.0833C-0.04486 10.0354 -0.04486 8.96459 0.13458 7.91666C0.178122 7.6475 0.233538 7.38229 0.30083 7.125C0.619273 5.87332 1.19043 4.70003 1.97916 3.67729C2.08208 3.54271 2.18895 3.40812 2.30375 3.28146C2.47554 3.07934 2.65788 2.88644 2.85 2.70354C3.09711 2.45048 3.36164 2.21504 3.64166 1.99896C4.67322 1.19872 5.85919 0.620559 7.125 0.30083C7.38229 0.233538 7.6475 0.178122 7.91666 0.13458C8.96459 -0.04486 10.0354 -0.04486 11.0833 0.13458C11.3525 0.178122 11.6177 0.233538 11.875 0.30083C13.1267 0.619167 14.3 1.19033 15.3227 1.97916C15.4573 2.08208 15.5919 2.18895 15.7185 2.30375C15.9207 2.47551 16.1136 2.65785 16.2965 2.85C16.5495 3.09711 16.785 3.36164 17.001 3.64166C17.8012 4.67328 18.3793 5.85923 18.6992 7.125C18.7665 7.38229 18.8219 7.6475 18.8654 7.91666C18.9563 8.43951 19.0014 8.9693 19 9.5Z" fill="#00008C"/>
<path d="M17.0207 15.3228C16.9178 15.4574 16.8109 15.5919 16.6961 15.7186C16.5243 15.9207 16.342 16.1136 16.1498 16.2965C15.9027 16.5496 15.6382 16.785 15.3582 17.0011L1.979 3.67736C2.08192 3.54277 2.1888 3.40819 2.30359 3.28152C2.47538 3.07941 2.65772 2.8865 2.84984 2.70361C3.09695 2.45054 3.36148 2.21511 3.6415 1.99902L13.5373 11.8949L17.0207 15.3228Z" fill="white"/>
<path d="M17.0209 3.67713L3.67736 17.0207C3.54277 16.9178 3.40819 16.8109 3.28152 16.6961C3.07941 16.5243 2.8865 16.342 2.70361 16.1498C2.45054 15.9027 2.2151 15.6382 1.99902 15.3582L5.44673 11.8748L15.3426 1.979C15.4771 2.08192 15.6117 2.1888 15.7384 2.30359C15.9405 2.47535 16.1334 2.65769 16.3163 2.84984C16.5707 3.10837 16.8062 3.38485 17.0209 3.67713Z" fill="white"/>
<path d="M8.59373 8.42736L8.03165 8.98945L2.32373 3.28153C2.49552 3.07942 2.67786 2.88651 2.86998 2.70361L7.12519 6.95882L7.29144 7.12507L7.91686 7.75049L8.08311 7.91674L8.59373 8.42736Z" fill="#FF0000"/>
<path d="M16.6764 15.7183C16.5046 15.9204 16.3223 16.1134 16.1302 16.2962L10.8022 10.9683L11.0833 10.6873L11.3643 10.4062L11.875 10.9169L12.0412 11.0831L12.8329 11.8748L16.6764 15.7183Z" fill="#FF0000"/>
<path d="M8.98945 10.9683L3.28153 16.6762C3.07942 16.5045 2.88651 16.3221 2.70361 16.13L6.95882 11.8748L7.12507 11.7085L7.75049 11.0831L7.91674 10.9169L8.42736 10.4062L8.98945 10.9683Z" fill="#FF0000"/>
<path d="M16.2962 2.86998L10.9683 8.1979L10.6873 7.91686L10.4062 7.63581L10.9169 7.12519L11.0831 6.95894L11.8748 6.16727L15.7183 2.32373C15.9205 2.49549 16.1134 2.67783 16.2962 2.86998Z" fill="#FF0000"/>
<path d="M19 9.5C19.0014 10.0307 18.9563 10.5605 18.8654 11.0833C18.8219 11.3525 18.7665 11.6177 18.6992 11.875H0.30083C0.233538 11.6177 0.178122 11.3525 0.13458 11.0833C-0.04486 10.0354 -0.04486 8.9646 0.13458 7.91667C0.178122 7.6475 0.233538 7.38229 0.30083 7.125H18.6992C18.7665 7.38229 18.8219 7.6475 18.8654 7.91667C18.9563 8.43951 19.0014 8.96931 19 9.5Z" fill="white"/>
<path d="M11.875 0.30083V18.6992C11.6177 18.7665 11.3525 18.8219 11.0833 18.8654C10.0354 19.0449 8.9646 19.0449 7.91667 18.8654C7.6475 18.8219 7.38229 18.7665 7.125 18.6992V0.30083C7.38229 0.233538 7.6475 0.178122 7.91667 0.13458C8.9646 -0.04486 10.0354 -0.04486 11.0833 0.13458C11.3525 0.178122 11.6177 0.233538 11.875 0.30083Z" fill="white"/>
<path d="M11.0832 0.13458V18.8654C10.0352 19.0449 8.96443 19.0449 7.9165 18.8654V0.13458C8.96443 -0.04486 10.0352 -0.04486 11.0832 0.13458Z" fill="#FF0000"/>
<path d="M19 9.49984C19.0014 10.0305 18.9563 10.5603 18.8654 11.0832H0.13458C-0.04486 10.0352 -0.04486 8.96443 0.13458 7.9165H18.8654C18.9563 8.43935 19.0014 8.96915 19 9.49984Z" fill="#FF0000"/>
</g>
<defs>
<clipPath id="clip0_110_9">
<rect width="19" height="19" fill="white"/>
</clipPath>
</defs>
</svg>
