<svg width="19" height="19" viewBox="0 0 19 19" fill="none" xmlns="http://www.w3.org/2000/svg">
<g clip-path="url(#clip0_110_22)">
<path d="M19 9.50001C19.0022 10.5792 18.8174 11.6506 18.4537 12.6667C17.7976 14.5168 16.5845 16.1184 14.9812 17.251C13.3779 18.3836 11.463 18.9917 9.49996 18.9917C7.53691 18.9917 5.62207 18.3836 4.01873 17.251C2.41538 16.1184 1.20227 14.5168 0.546211 12.6667C-0.18207 10.6184 -0.18207 8.38164 0.546211 6.33334C1.20227 4.48317 2.41538 2.88167 4.01873 1.74905C5.62207 0.616422 7.53691 0.00830078 9.49996 0.00830078C11.463 0.00830078 13.3779 0.616422 14.9812 1.74905C16.5845 2.88167 17.7976 4.48317 18.4537 6.33334C18.8174 7.3494 19.0022 8.42082 19 9.50001Z" fill="white"/>
<path d="M19 9.50016C19.0022 10.5794 18.8174 11.6508 18.4537 12.6668H0.546211C-0.18207 10.6185 -0.18207 8.3818 0.546211 6.3335H18.4537C18.8174 7.34955 19.0022 8.42097 19 9.50016Z" fill="#0036A7"/>
<path d="M18.4539 12.6665C17.7978 14.5167 16.5847 16.1182 14.9814 17.2508C13.378 18.3834 11.4632 18.9915 9.50014 18.9915C7.53709 18.9915 5.62225 18.3834 4.0189 17.2508C2.41556 16.1182 1.20245 14.5167 0.546387 12.6665H18.4539Z" fill="#D62718"/>
</g>
<defs>
<clipPath id="clip0_110_22">
<rect width="19" height="19" fill="white"/>
</clipPath>
</defs>
</svg>
