<svg xmlns="http://www.w3.org/2000/svg" width="26" height="26" viewBox="0 0 26 26">
  <defs>
    <style>
      .cls-1 {
        fill: #b76400;
        fill-rule: evenodd;
      }
    </style>
  </defs>
  <path id="basketball_1661" data-name="basketball 1661" class="cls-1" d="M1229.98,174.005a13,13,0,0,1,7.98,1.98c0.43,0.284,1.57.85,1.67,1.37q-3.165,3.147-6.34,6.3c-0.55.541-1.09,1.083-1.63,1.624a1.347,1.347,0,0,1-.76.609c-0.7-.71-1.39-1.421-2.08-2.132a1.8,1.8,0,0,1-.77-0.914,5.032,5.032,0,0,0,1.07-1.573,10.925,10.925,0,0,0,1.02-2.538c0.03-.305.06-0.609,0.1-0.914a4.9,4.9,0,0,0,.1-1.777C1230.2,175.407,1230.06,174.587,1229.98,174.005Zm-1.72.2h0.2v0.1a4.109,4.109,0,0,1,.31,1.625,6.962,6.962,0,0,1-1.07,4.822,1.692,1.692,0,0,1-.86,1.066l-3.3-3.35a3.63,3.63,0,0,1-1.17-1.32,3.747,3.747,0,0,0,.81-0.66,13.04,13.04,0,0,1,2.18-1.32c0.66-.287,1.35-0.537,2.03-0.761A3.557,3.557,0,0,0,1228.26,174.208Zm-7.11,4.162h0.2l3.3,3.351a3.716,3.716,0,0,1,1.17,1.32,8.55,8.55,0,0,0-.76.558,10.576,10.576,0,0,1-1.42.711,12.886,12.886,0,0,1-2.19.456,4.443,4.443,0,0,1-1.52.051c-0.59-.133-1.19-0.234-1.73-0.355v-0.254a3.644,3.644,0,0,0,.21-0.812,20.431,20.431,0,0,1,.76-2.031,12.669,12.669,0,0,1,1.32-2.182A7.644,7.644,0,0,0,1221.15,178.37Zm22.85,9.594a10.41,10.41,0,0,1-1.78-.3h-0.81a9.171,9.171,0,0,0-3.55.609,11.058,11.058,0,0,0-1.93,1.015,2.654,2.654,0,0,1-.97.66c-0.69-.71-1.39-1.421-2.08-2.132a1.786,1.786,0,0,1-.76-0.914q3.15-3.121,6.29-6.243c0.55-.542,1.09-1.083,1.63-1.625a1.709,1.709,0,0,1,.76-0.66c0.43,0.677,1.04,1.276,1.47,1.98C1243.56,182.452,1243.96,184.583,1244,187.964Zm-26-1.979,1.42,0.3a9.551,9.551,0,0,0,4.93-.66,11.079,11.079,0,0,0,1.78-.964,1.989,1.989,0,0,1,.91-0.609c0.69,0.71,1.39,1.421,2.08,2.132a1.786,1.786,0,0,1,.76.914q-3.15,3.121-6.29,6.243c-0.55.542-1.09,1.083-1.63,1.625a1.709,1.709,0,0,1-.76.66c-0.42-.645-1.01-1.211-1.42-1.879a15.875,15.875,0,0,1-1.78-5.33v-2.436ZM1231.96,200a13.135,13.135,0,0,1-7.82-1.929c-0.44-.278-1.67-0.906-1.77-1.421q3.165-3.147,6.34-6.3c0.55-.541,1.09-1.083,1.63-1.624a1.347,1.347,0,0,1,.76-0.609c0.68,0.693,1.36,1.387,2.03,2.081a2.272,2.272,0,0,1,.82.914,3.442,3.442,0,0,0-.66.914,11.747,11.747,0,0,0-1.58,4.01,7.557,7.557,0,0,0-.05,2.183A8.816,8.816,0,0,1,1231.96,200Zm8.49-10.812c0.99-.021,2.76-0.065,3.3.355a0.335,0.335,0,0,1,.05.152,3.025,3.025,0,0,0-.16.66c-0.14.458-.26,0.967-0.45,1.422a14.26,14.26,0,0,1-1.63,2.842,1.986,1.986,0,0,1-.91,1.016l-3.3-3.351a3.716,3.716,0,0,1-1.17-1.32,16.187,16.187,0,0,1,2.13-1.269c0.48-.135.95-0.27,1.42-0.406A2.766,2.766,0,0,0,1240.45,189.183Zm-5.49,3h0.2q1.635,1.65,3.25,3.3a4.6,4.6,0,0,1,1.22,1.32c-0.4.254-.73,0.643-1.11,0.914a11.559,11.559,0,0,1-4.98,2.081v-0.051h-0.05c-0.07-.488-0.2-1.024-0.31-1.522a5.512,5.512,0,0,1,.05-1.777c0.12-.514.06-0.917,0.21-1.371A11.9,11.9,0,0,1,1234.96,192.178Z" transform="translate(-1218 -174)"/>
</svg>
