<svg xmlns="http://www.w3.org/2000/svg" width="21" height="31" viewBox="0 0 21 31">
  <defs>
    <style>
      .cls-1 {
        fill: #fe6506;
        fill-rule: evenodd;
      }
    </style>
  </defs>
  <path id="cs_1651" data-name="cs 1651" class="cls-1" d="M896.825,182.486a7.96,7.96,0,0,1,.212,4.686,3.027,3.027,0,0,0-1.06.213c0.5,2.187,2.455,3.983,3.179,6.177,0.844,2.553-1.039,5.826-.212,7.243,0.474,1.292,1.8,1.207,2.12,2.556H900.64c-0.821.555-3.35-.089-4.239-0.426,0.686-1.925.277-4.3-.212-6.177-0.229-.878.405-1.514,0.424-1.918,0.241-.178-0.212-0.213-0.212-0.213-0.361-.428-0.609-0.071-1.06-0.426-1.16-.912-0.811-2.352-2.756-2.982-1.218,3.944-4.735,7.829-4.24,12.568a6.11,6.11,0,0,1-1.908.213,0.761,0.761,0,0,0-.424-0.213,23.26,23.26,0,0,1,1.06-7.029c0.286-.8,1.206-1.563,1.484-2.344,0.637-1.786-.524-4.261,0-5.751,0.351-1,.039-2.881.636-3.621l-0.636-.213q0.107-1.6.212-3.2l1.272-.213V181c-0.954-1.347.558-3.923,1.484-4.261a1.956,1.956,0,0,1,1.7-.213v-0.213c-0.547-.8.013-1.862,0.212-2.556,1.179-.773,3.146-1.379,3.816.426a3.162,3.162,0,0,1,.424,1.491,1.656,1.656,0,0,0-.848,1.278h0.212v0.213a1.9,1.9,0,0,0,1.272-.852,6.689,6.689,0,0,0,1.7.639c2.461,0.072,6.066-.58,7,1.065h-1.7a5.717,5.717,0,0,1-2.544.213c-0.989,1.543-.992,2.521-1.7,4.474a6.542,6.542,0,0,1-1.484.852A7.388,7.388,0,0,0,896.825,182.486Zm2.967-3.621v0.426h0.636v-0.426h-0.636Zm-0.636.639a0.927,0.927,0,0,0,.636.639V179.93A0.765,0.765,0,0,0,900,179.5h-0.848Z" transform="translate(-886 -173)"/>
</svg>
