<svg xmlns="http://www.w3.org/2000/svg" width="26" height="26.062" viewBox="0 0 26 26.062">
  <defs>
    <style>
      .cls-1 {
        fill: #ab040d;
        fill-rule: evenodd;
      }
    </style>
  </defs>
  <path id="dota_1651" data-name="dota 1651" class="cls-1" d="M810.708,174.079a1.191,1.191,0,0,1-.158.471l1.026,0.078c0.124,0.513.452,0.508,1.105,0.472a0.533,0.533,0,0,1,.315-0.079,1.046,1.046,0,0,1,.316-0.785,1.976,1.976,0,0,1,1.263-.157c0.97,0.215,2.852-.155,3.551.392,0.106,0.12.138,0.339,0.237,0.472a1.048,1.048,0,0,1,.789-0.55c0.615,0.6,2.735-.387,2.762,1.257a3.085,3.085,0,0,1-.158.942,9.449,9.449,0,0,0,.237,1.178v1.414a32.872,32.872,0,0,1-.079,3.535,3.877,3.877,0,0,0-.632.314c0.027,0.21.053,0.419,0.079,0.629a2.384,2.384,0,0,0-.473.785c0.935,0.9.729,2.31,0.71,4.006h-0.237l-0.236.314h0.868c0,3.324,0,6.981,0,10.526h-0.158c-0.578-.545-1.657-0.494-2.6-0.471v0.235a1,1,0,0,1,.315.079v0.157a10.353,10.353,0,0,1-3.077.079c-0.26-.062-0.563-0.265-0.79-0.315-0.149.057-.38,0.266-0.552,0.315-1,.284-2.089-0.129-3,0.078h-1.183c-0.336.091-.834,0.679-1.342,0.471l-0.237-.314c-0.147-.052-0.313.135-0.552,0.079a4.046,4.046,0,0,0-.947-0.236,1.024,1.024,0,0,1-.71.55,6.5,6.5,0,0,1-.711-1.021,2.684,2.684,0,0,0-.394.236c-0.61.053-1.378-.47-2.131-0.315a4.665,4.665,0,0,1-1.815,0,1.254,1.254,0,0,0-.552.079,8.315,8.315,0,0,1-1.736-.079c-1.146-.1-2.695.385-3.473-0.235a0.41,0.41,0,0,1-.079-0.236c0.6-.953-0.36-3.211,0-4.32,0.091-.279.456-0.453,0.553-0.707a8.912,8.912,0,0,0,.158-2.514c-0.09-.187-0.452-0.246-0.553-0.471a10.665,10.665,0,0,1-.158-2.906,0.569,0.569,0,0,0,.553-0.236c0.664-.876-0.546-1.459-0.316-2.514a9.792,9.792,0,0,0-.473-3.849,5.9,5.9,0,0,1,.394-2.2c0.344-1.438-.256-2.938,0-4.163h0.71a2.034,2.034,0,0,0,.79-0.079l3.551,0.079c0.3,0.065.657-.091,1.026,0a2.708,2.708,0,0,1,.473.314,13.288,13.288,0,0,0,2.446,0c0.436-.152.867-0.645,1.263-0.785a2.626,2.626,0,0,1,1.184,0,3.6,3.6,0,0,0,1.262-.079Zm-10.18,4.32a11.371,11.371,0,0,0-1.5.707c1.488,1.533,2.95,3.086,4.341,4.713,0.249,0.291.671,0.511,0.947,0.785a31.224,31.224,0,0,1,2.841,3.142l1.341,1.178a9.242,9.242,0,0,0,1.578,1.807,2.743,2.743,0,0,1,.632.393c0.128,0.174.112,0.378,0.237,0.55,0.574,0.788,1.542,1.346,2.13,2.121a4.011,4.011,0,0,0,1.184,1.335,8.756,8.756,0,0,0,3.157.236,17.006,17.006,0,0,0,1.657-4.871c-0.8-.38-1.363-1.216-2.131-1.571a4.17,4.17,0,0,1-.868-0.314l-0.474-.55c-0.359-.243-0.759-0.309-1.1-0.549-0.916-.639-1.811-1.448-2.762-2.043-0.37-.231-0.758-0.3-1.105-0.55-1.343-.952-2.7-1.9-4.1-2.827-0.281-.187-0.582-0.548-0.868-0.707-0.216-.121-0.417-0.034-0.631-0.157l-0.316-.393a2.339,2.339,0,0,1-1.026-.55c-0.026-.131-0.052-0.262-0.079-0.393a15.176,15.176,0,0,0-1.736-.942,3.79,3.79,0,0,0-.631-0.55h-0.71Zm14.678,0.157a19.488,19.488,0,0,1-3.63,1.021v0.157h0.079a18.334,18.334,0,0,0,3.551,2.671,2.243,2.243,0,0,0,1.42.785v-0.157a4.115,4.115,0,0,0,.079-0.942,10.789,10.789,0,0,0,.474-2.514A4.791,4.791,0,0,0,815.206,178.556Zm-14.284,11.075c-0.375,1.544-1.463,2.52-1.5,4.4A8.409,8.409,0,0,1,801.4,195.6a7.625,7.625,0,0,0,3.867-.785,1.633,1.633,0,0,0,.868-0.393c-0.318-.21-0.5-0.566-0.789-0.786a27.615,27.615,0,0,1-2.841-2.592A4.451,4.451,0,0,0,800.922,189.631Z" transform="translate(-796 -173.938)"/>
</svg>
