<svg xmlns="http://www.w3.org/2000/svg" width="26" height="26.031" viewBox="0 0 26 26.031">
  <defs>
    <style>
      .cls-1 {
        fill: #c9c9c9;
        fill-rule: evenodd;
      }
    </style>
  </defs>
  <path id="hockey_1663" data-name="hockey 1663" class="cls-1" d="M1328.4,174h2.6v0.033a9.05,9.05,0,0,0-.42,1.628c-0.29.928-.48,1.947-0.78,2.867-0.05.217-.09,0.434-0.13,0.651-0.29.892-.43,1.837-0.72,2.769-0.89,2.933-1.46,6.067-2.41,8.958-0.7,2.155-1.1,4.4-2.3,6.026a4.757,4.757,0,0,1-2.12,1.238,28.013,28.013,0,0,1-3.77,1.042c-0.59.153-1.22,0.156-1.79,0.293-0.64.154-1.29,0.05-1.95,0.2-0.62.136-1.38,0.052-2.02,0.195h-0.61c-0.54.115-1.22-.057-1.79,0.065a5.588,5.588,0,0,1-1.01.033,5.283,5.283,0,0,1-3.35-.912c-0.91-.684-0.81-1.778-0.81-3.355a6.645,6.645,0,0,1,.06-1.629,2.641,2.641,0,0,1,.82-1.27,3.431,3.431,0,0,1,1.3-.619,4.919,4.919,0,0,1,1.17,0l3.22,0.032c0.42-.03,1.04-0.032,1.65-0.032a5.327,5.327,0,0,0,1.01-.033c0.29-.064.67,0.023,0.91-0.032,0.27-.06.63,0.018,0.85-0.033h0.58c0.31-.068.74-0.029,1.04-0.1h0.49c0.65-.145,1.43-0.11,2.05-0.26,0.22-.022.43-0.044,0.65-0.065a7.043,7.043,0,0,0,2.38-.782,2.9,2.9,0,0,0,.61-1.173c0.48-1.1.8-2.279,1.21-3.485,0.59-1.776,1.03-3.7,1.62-5.5,0.32-.962.48-1.965,0.78-2.9,0.33-1,.47-2.057.78-3.03C1328.29,174.534,1328.3,174.257,1328.4,174Zm-16.62,3.876c2.34-.04,4.69.48,5.66,1.792a2.876,2.876,0,0,1,.52.912,2.327,2.327,0,0,1-.46,1.954c-1.21,1.678-5.55,2.338-8.22,1.466a6.62,6.62,0,0,1-1.92-.977,2.63,2.63,0,0,1-.98-1.3,2.223,2.223,0,0,1,.26-1.726,5,5,0,0,1,3.32-1.922l1.2-.163A2.612,2.612,0,0,0,1311.78,177.876Zm-5.46,5.994c0.12,0.078.21,0.211,0.32,0.293a8.248,8.248,0,0,0,1.47.814,12.148,12.148,0,0,0,7.09.359,8.734,8.734,0,0,0,1.82-.717,8.214,8.214,0,0,1,.97-0.684v1.5c-0.15.23-.15,0.556-0.29,0.782a3.91,3.91,0,0,1-1.72,1.4c-2.91,1.257-8.45.852-9.53-1.727A5.908,5.908,0,0,1,1306.32,183.87Z" transform="translate(-1305 -174)"/>
</svg>
