<svg xmlns="http://www.w3.org/2000/svg" width="26" height="30" viewBox="0 0 26 30">
  <defs>
    <style>
      .cls-1 {
        fill: #00a5b3;
        fill-rule: evenodd;
      }
    </style>
  </defs>
  <path id="HS_1656" data-name="HS 1656" class="cls-1" d="M1058.53,173a3.861,3.861,0,0,1,1.95.66c0.61,0.18,1.16-.722,1.52-0.66,0.49,0.084,1.07.944,1.52,1.1h2.38c0.07,0.22.14,0.441,0.22,0.661h1.08c0.07,0.22.14,0.44,0.22,0.66,0.87,0.475,1.59-.653,2.38,0a38.907,38.907,0,0,1,3.9,4.842c0.14,1.1.29,2.2,0.43,3.3,0.15,0.525.76,1.45,0.87,1.981-0.22,1.907-.43,3.815-0.65,5.722-0.26.615-1.24,1.354-1.52,1.981-0.14,1.027-.29,2.054-0.43,3.081a7.915,7.915,0,0,1-1.52.88c-1.86,1.428-3.09,3.569-5.63,4.4h-3.03c-0.97.3-3.09,1.7-4.55,1.32a23.378,23.378,0,0,0-5.42-1.32,4.629,4.629,0,0,1-1.08-1.761,10.348,10.348,0,0,0,1.95-1.1c0.94-.22,1.87-0.441,2.81-0.661,0.62-.323,1.08-1.267,1.74-1.54,2.05-.851,3.98-0.627,5.63-1.761,2.11-1.45,3.01-3.921,4.77-5.722-0.63-3.852.06-7.347-2.39-9.243-2.7-2.3-9.25-.205-9.53,2.861-0.83,1.175-.3,3.41,0,4.621a2.623,2.623,0,0,0,1.73.881c0.55-.541.73-0.253,0.87-1.321a3.2,3.2,0,0,1-.65-1.54h0.22v-0.22a14.614,14.614,0,0,1,4.33,0,9.822,9.822,0,0,1,1.3,5.942c-0.89.518-1.38,1.481-2.17,1.981-1.02.647-5.1,1.323-6.06,0.66-1.24-.458-5.45-5.548-6.07-6.823-0.33-.668-0.54-5.721-0.65-6.6,2.1-.552,2.39-2.217,3.68-3.522C1054.29,175.12,1056.78,174.48,1058.53,173Z" transform="translate(-1049 -173)"/>
</svg>
