<svg xmlns="http://www.w3.org/2000/svg" width="26" height="26" viewBox="0 0 26 26">
  <defs>
    <style>
      .cls-1 {
        fill: #c57600;
        fill-rule: evenodd;
      }
    </style>
  </defs>
  <path id="LoL_1665" data-name="LoL 1665" class="cls-1" d="M780.164,174c0.465,0.15,1.222-.007,1.548.124a1.552,1.552,0,0,0,.247.31v21.955a20.02,20.02,0,0,1-.062,3.349,1.55,1.55,0,0,0-.309.248c-6.669,0-12.4,0-18.887,0h-4.768c-0.709,0-1.5.116-1.8-.31-0.276-.371-0.048-1.787-0.062-2.232-0.086-2.886,0-10.959,0-16.188v-4.589a12.086,12.086,0,0,1,.062-2.357,1.556,1.556,0,0,0,.31-0.248h21.921A5.043,5.043,0,0,0,780.164,174Zm-23.222.992a24.12,24.12,0,0,0,0,4.776c-0.02.227-.041,0.455-0.062,0.682,0.072,0.682-.04,1.314.062,2.047a12.167,12.167,0,0,1-.062,1.55,45.84,45.84,0,0,0,.062,5.21c0.052,0.381-.062,1.065-0.062,1.55,0,1.29.03,2.525,0.062,3.6,0.022,0.726-.1,1.99,0,2.542a19.054,19.054,0,0,0,.062,2.109c1.651-.142,3.9,0,5.759,0h16.348a7.215,7.215,0,0,0,1.858-.062h0.062a20.1,20.1,0,0,1,0-2.295V175.054a1.148,1.148,0,0,0-.372-0.062c-0.517-.272-4.45.218-6.068,0-0.718-.1-1.337-0.007-2.539-0.062a5.754,5.754,0,0,1-1.115.062,26.643,26.643,0,0,0-4.52,0c-0.07.011-.387-0.064-0.558-0.062a15.837,15.837,0,0,0-2.291.062,4.331,4.331,0,0,0-.619-0.062c-0.829.143-2.92-.14-3.963,0.062A11.046,11.046,0,0,1,756.942,174.992Zm5.326,15.2a0.93,0.93,0,0,0,.371-0.124c-0.029-.129-0.026-0.236-0.062-0.434h-0.062v-0.062H762.33c-0.011-1.56-.249-4.136.185-5.334H762.33c-0.078-1.454.036-2.8-.062-3.969a7.617,7.617,0,0,0-.062-1.985,4.41,4.41,0,0,0-1.177-1.426,1.671,1.671,0,0,1-.681-0.5h0.124a6.861,6.861,0,0,0,2.291.062c1.91,0,4.029-.083,5.016.062a3.588,3.588,0,0,0,1.362-.062v0.124a15.241,15.241,0,0,0-1.857,2.295v11.473a0.9,0.9,0,0,0-.124.5,2.136,2.136,0,0,1,.124.621,2.434,2.434,0,0,0,0,.868c0.6-.149,1.307.474,1.857,0.62a5.544,5.544,0,0,0,1.92-.31c1.137-.279,2.182-0.235,3.282-0.558l0.991-.124a7.2,7.2,0,0,0,1.114-.93c0.962-.71,1.849-1.526,2.849-2.171v0.124a6.752,6.752,0,0,0-.5,1.612c-0.081.246-.133,0.575-0.247,0.869-0.049.124-.272,0.274-0.31,0.372-0.076.2,0.08,0.366,0,.62-0.317,1.008-.51,2.305-1.177,2.977,0.4,0.245-.082,1.154-0.185,1.55H761.4a2.372,2.372,0,0,1-.991.062v-0.124a3.6,3.6,0,0,0,1.734-1.55,3.439,3.439,0,0,0,.124-1.489v-3.659Zm12.2,3.225v0.124h0.062A0.215,0.215,0,0,0,774.467,193.412Zm-9.537.5c-0.02.042-.041,0.083-0.061,0.125C764.977,193.946,764.93,193.908,764.93,193.908Zm8.236,0.745c0.107,0.054.079,0.055,0.186,0h-0.186Zm-8.793.062a0.222,0.222,0,0,0,.124.062A0.222,0.222,0,0,0,764.373,194.715Zm7.555,0a0.222,0.222,0,0,0,.124.062A0.225,0.225,0,0,0,771.928,194.715Zm0.309,0a0.225,0.225,0,0,0,.124.062A0.222,0.222,0,0,0,772.237,194.715Zm0.186,0c0.147,0.139.022,0.067,0.248,0.062v-0.062h-0.248Z" transform="translate(-756 -174)"/>
</svg>
