<svg id="ow" xmlns="http://www.w3.org/2000/svg" width="33" height="33" viewBox="0 0 33 33">
  <defs>
    <style>
      .cls-1 {
        fill: #d9d9dd;
      }

      .cls-1, .cls-2 {
        fill-rule: evenodd;
      }

      .cls-2 {
        fill: #ffac00;
      }
    </style>
  </defs>
  <path id="ow_1_2_1652" data-name="ow 1/2 1652" class="cls-1" d="M988.451,174a8.359,8.359,0,0,1,1.954,2.128c2.1,2.8,4.584,7.762,3.187,12.973a24.363,24.363,0,0,1-1.131,3.445,16.343,16.343,0,0,1-9.87,8.615,39.014,39.014,0,0,1-3.907.709c-2.247.475-5.458-.474-6.889-1.013a15.827,15.827,0,0,1-9.87-10.135,13.562,13.562,0,0,1-.719-6.993,17.79,17.79,0,0,1,5.14-9.628,0.353,0.353,0,0,1,.206.1,13.8,13.8,0,0,1,2.879,3.547c-2.356,1.5-4.362,6.494-3.29,10.438,0.284,1.048.466,2.8,1.336,3.244a11.331,11.331,0,0,1,2.159-2.027c1.026-.9,1.885-2.007,2.879-2.939a8.641,8.641,0,0,0,1.234-1.014q1.438-3.243,2.879-6.486h0.2V189c-1.43.922-2.44,2.442-3.7,3.547-0.778.682-2.2,1.518-2.57,2.534h0.1c2.233,2.285,7.944,2.622,11.31,1.216,0.8-.336,2.1-0.673,2.468-1.419L978.17,189v-9.932h0.206v0.1a8.782,8.782,0,0,1,.822,1.925c0.523,1.179,1.087,2.4,1.645,3.649a7.153,7.153,0,0,0,2.365,2.432c1.128,0.84,1.929,2.079,3.084,2.939a5.942,5.942,0,0,0,1.44,1.318q0.462-1.065.925-2.129a12.243,12.243,0,0,0-.309-7.7,14.005,14.005,0,0,0-1.439-2.534c-0.416-.571-1.222-0.868-1.337-1.723A19.755,19.755,0,0,0,988.451,174Z" transform="translate(-961 -169)"/>
  <path id="ow_2_2_1654" data-name="ow 2/2 1654" class="cls-2" d="M976.565,169.01a14.3,14.3,0,0,1,8.269,1.982c0.7,0.448,2.033.775,2.166,1.774A14.581,14.581,0,0,0,984.44,176a0.332,0.332,0,0,1-.2-0.1,6.033,6.033,0,0,1-1.28-.835c-1.111-.72-4.7-1.9-6.891-1.356a13.229,13.229,0,0,0-4.332,1.669,2.865,2.865,0,0,1-1.083.522A10.737,10.737,0,0,1,968,172.348a22,22,0,0,1,5.218-2.817C973.843,169.339,976.192,169.264,976.565,169.01Z" transform="translate(-961 -169)"/>
</svg>
