<svg xmlns="http://www.w3.org/2000/svg" width="28" height="31" viewBox="0 0 28 31">
  <defs>
    <style>
      .cls-1 {
        fill: #016bf0;
        fill-rule: evenodd;
      }
    </style>
  </defs>
  <path id="Фигура_317_1668" data-name="Фигура 317 1668" class="cls-1" d="M909.367,179.493h-7.032a3.945,3.945,0,0,0-1.457-2.579c-0.677-.5-1.621-0.418-1.647-1.612,0.693-.819,1.519-0.881,2.6-1.29a20.06,20.06,0,0,1,2.787-.968,2.3,2.3,0,0,1,1.584.452,10.941,10.941,0,0,1,3.168,2v4Zm8.3,0h-7.032c-0.01-.9-0.217-3.729.127-4.256a4.308,4.308,0,0,1,1.457-.9,10.248,10.248,0,0,1,2.534-1.29,2.748,2.748,0,0,1,1.647.323c1.482,0.551,3.347.841,4.371,1.87a0.9,0.9,0,0,1-.19.774,3.968,3.968,0,0,1-1.393.838A4.028,4.028,0,0,0,917.665,179.493Zm-20.335,5.16c-0.012-1.672.087-2.74,1.014-3.418,0.815-.6,2.4-0.452,3.8-0.452H910.7v0.065a6.788,6.788,0,0,0-1.267,1.612c-0.783,1.077-1.819,2.022-2.534,3.16h-0.063v-0.064a10.01,10.01,0,0,0-.887-0.9H897.33Zm16.344-3.87H924v0.065a7.909,7.909,0,0,0-1.457,1.87c-0.721.992-1.673,1.862-2.344,2.9h-0.063v-0.064a10.01,10.01,0,0,0-.887-0.9h-8.3v-0.129a18.864,18.864,0,0,0,1.014-2.128A6.038,6.038,0,0,1,913.674,180.783ZM897.33,185.3H903.1a9.445,9.445,0,0,0,1.584,2.128c0.955,1.347,1.9,2.649,2.85,4,0.506,0.715,1.592,1.613,1.2,3.16a3.1,3.1,0,0,1-1.774,2.193,11.133,11.133,0,0,1-3.421.129H896v-0.064h0.063l3.738-4.773h0.063v0.065a9.879,9.879,0,0,0,.887.9h2.217v-0.129a14.3,14.3,0,0,1-1.9-2.58C899.879,188.643,898.392,187.087,897.33,185.3Zm13.494,0h4.624v0.129a9.973,9.973,0,0,0-.253,4.127l0.126,1.225c0.5,1.831,1.3,2.957,3.1,3.483a3.936,3.936,0,0,0,1.774.193,17.116,17.116,0,0,1,2.154-.258v0.129a11.735,11.735,0,0,0-2.091,1.484,9.78,9.78,0,0,1-2.787,1.032,5.4,5.4,0,0,1-4.244-.968A7.847,7.847,0,0,1,910,190.65v-1.225a7,7,0,0,1,.127-1.87C910.321,186.785,910.636,186.018,910.824,185.3Zm-0.191,9.931c0.551,0.381.915,1.076,1.457,1.484a7.047,7.047,0,0,0,5.512,1.354v0.709a13.514,13.514,0,0,0-.824,1.29A16.039,16.039,0,0,1,910.633,204v-8.771ZM902.4,198.2c3.1,0.048,5.887.194,6.9-1.87h0.064V204H909.3a14.44,14.44,0,0,0-2.09-.967,12.964,12.964,0,0,1-3.8-2.9C902.975,199.541,902.392,199.265,902.4,198.2Z" transform="translate(-896 -173)"/>
</svg>
