<svg id="football" xmlns="http://www.w3.org/2000/svg" width="30" height="30" viewBox="0 0 30 30">
  <defs>
    <style>
      .cls-1 {
        fill: #006500;
        fill-rule: evenodd;
      }

      .cls-2 {
        fill: none;
        stroke: #006500;
        stroke-width: 2px;
      }
    </style>
  </defs>
  <path id="football_1657" data-name="football 1657" class="cls-1" d="M1146.97,174c6.71-.082,10.78,3.071,12.78,7.7a12.538,12.538,0,0,1,1.01,7.534,19.873,19.873,0,0,1-1.01,3.217,13.13,13.13,0,0,1-8.04,6.942c-0.93.3-1.96,0.293-2.96,0.508-2.04.438-4.98-.742-6.18-1.27-3.88-1.7-5.99-4.643-7.19-9.058a10.906,10.906,0,0,1-.17-4.91c0.19-.734.39-1.468,0.59-2.2a13.373,13.373,0,0,1,6.85-7.365,20.076,20.076,0,0,1,2.63-.847A7.307,7.307,0,0,0,1146.97,174Zm0.17,1.1a3.934,3.934,0,0,1-.85.084,16.712,16.712,0,0,0-2.62.677,12.425,12.425,0,0,0-6.77,6.773,17.165,17.165,0,0,0-.68,2.624,10.187,10.187,0,0,0,.43,4.91,11.334,11.334,0,0,0,6.68,7.619c1.15,0.485,3.6,1.431,5.5,1.016a20.347,20.347,0,0,0,3.22-.677,12.234,12.234,0,0,0,6.77-6.265,18.161,18.161,0,0,0,.84-2.709,11.476,11.476,0,0,0-.84-6.857C1156.95,177.97,1153.36,175.086,1147.14,175.1Zm-3.22,1.015a0.552,0.552,0,0,1,.34.085c0.98,0.319,1.82,1.38,2.63,1.947a2.872,2.872,0,0,1,.84.508v3.894c-1.18.683-2.67,2.3-3.89,2.709-0.72-.533-2.72-0.841-3.64-1.27-0.17-1.509-1.04-2.748-1.27-4.232,0.84-.584,1.42-1.595,2.29-2.2C1141.99,177.007,1143.2,176.7,1143.92,176.116Zm7.87,0c1.7,0.2,3.24,1.628,4.24,2.625a2.069,2.069,0,0,1,1.01,1.439c-0.64.879-.68,3.251-1.44,3.894a17.2,17.2,0,0,1-3.72,1.185,18.094,18.094,0,0,0-2.71-2.116,3.378,3.378,0,0,1-.93-0.593v-3.894a16.132,16.132,0,0,0,1.95-1.439A10.271,10.271,0,0,0,1151.79,176.116Zm-11.76,8.466,3.81,1.185a7.168,7.168,0,0,1,.42,1.524,12.406,12.406,0,0,1,.93,3.048,17.888,17.888,0,0,0-1.94,2.539,2.738,2.738,0,0,1-.26.508h-4.65a14.1,14.1,0,0,1-1.95-6.18A20.074,20.074,0,0,0,1140.03,184.582Zm15.74,0c0.95,0.287,2.09,1.543,2.88,2.116a3.514,3.514,0,0,1,.85.508v1.186a6.069,6.069,0,0,0-.26,1.354c-0.21.685-1.2,3.375-1.61,3.64h-4.57c-0.51-.864-2.18-2.494-2.28-3.471a18.075,18.075,0,0,0,1.18-3.3c0.06-.254.12-0.508,0.17-0.762a2.91,2.91,0,0,1,1.1-.339A10.778,10.778,0,0,0,1155.77,184.582Zm-10.07,5.926c0.94-.012,4.23-0.167,4.57.085a11.763,11.763,0,0,1,2.29,3.3c-0.7.941-.74,3.272-1.44,4.148-0.83.592-3.7,0.559-4.57,0.339a5.178,5.178,0,0,1-1.7-.339,22.1,22.1,0,0,1-1.18-3.386,2.288,2.288,0,0,1-.17-1.016C1143.85,192.591,1145.11,191.471,1145.7,190.508Z" transform="translate(-1133 -172)"/>
  <circle id="Эллипс_1659" data-name="Эллипс 1659" class="cls-2" cx="15" cy="15" r="14"/>
</svg>
