<svg xmlns="http://www.w3.org/2000/svg" width="26" height="21" viewBox="0 0 26 21">
  <defs>
    <style>
      .cls-1 {
        fill: #ff4655;
        fill-rule: evenodd;
      }
    </style>
  </defs>
  <path id="valorant_1670" data-name="valorant 1670" class="cls-1" d="M838.155,175a0.694,0.694,0,0,1,.429.4c0.232,0.308.5,0.593,0.736,0.906,0.2,0.264.456,0.5,0.655,0.765,0.814,1.082,1.722,2.08,2.536,3.162,0.489,0.651,1.084,1.242,1.574,1.893,1.594,2.117,3.4,4.064,4.99,6.183,0.432,0.574.958,1.1,1.391,1.671,0.768,1.02,1.625,1.959,2.392,2.98,0.2,0.264.456,0.5,0.655,0.766,0.339,0.451.727,0.863,1.063,1.309a5.47,5.47,0,0,0,.573.725,0.763,0.763,0,0,1-.021.181l-0.061.02a1.63,1.63,0,0,1-.573.02h-7.648a1.582,1.582,0,0,1-.757-0.725c-0.465-.619-1-1.188-1.472-1.812-0.328-.437-0.735-0.833-1.063-1.269-1.173-1.557-2.49-2.993-3.661-4.551-0.413-.55-0.892-1.056-1.309-1.611a2.2,2.2,0,0,1-.572-0.866v-9.405A0.81,0.81,0,0,1,838.155,175Zm25.563,0h0.163a0.344,0.344,0,0,1,.061.081,3.868,3.868,0,0,1,.041,1.087v8.458a2.534,2.534,0,0,1-.02.645,2.62,2.62,0,0,1-.552.725c-0.366.485-.784,0.929-1.145,1.409-0.241.32-.519,0.611-0.757,0.927a1.133,1.133,0,0,1-.675.564h-7.71a0.532,0.532,0,0,1-.491-0.1,0.135,0.135,0,0,1,0-.141,1.076,1.076,0,0,1,.225-0.282c0.21-.278.449-0.532,0.655-0.806,0.529-.7,1.105-1.353,1.636-2.054,0.179-.235.415-0.448,0.593-0.684,1.412-1.876,3.007-3.6,4.417-5.478,0.439-.584.948-1.122,1.391-1.712,0.517-.688,1.115-1.321,1.636-2.014C863.347,175.41,863.567,175.223,863.718,175Z" transform="translate(-838 -175)"/>
</svg>
