<svg width="7" height="11" viewBox="0 0 7 11" fill="none" xmlns="http://www.w3.org/2000/svg">
<g clip-path="url(#clip0_1_4)">
<path d="M3.415 0.5C3.55067 0.510798 3.68095 0.557777 3.79228 0.636044C3.90361 0.714311 3.99192 0.821002 4.048 0.945C4.171 1.111 4.361 1.245 4.485 1.412C4.775 1.805 5.056 2.183 5.336 2.591C5.85096 3.32711 6.28292 4.11792 6.624 4.949C6.73319 5.27622 6.82071 5.61028 6.88601 5.949C7.03714 6.57028 7.03714 7.21873 6.88601 7.84C6.79184 8.16558 6.65994 8.47904 6.493 8.774C6.03692 9.51238 5.3329 10.0643 4.507 10.331C4.287 10.404 4.038 10.412 3.807 10.465C3.22245 10.5189 2.63432 10.411 2.107 10.153C1.63422 9.94991 1.21369 9.64215 0.877125 9.25292C0.540557 8.8637 0.296727 8.40315 0.164005 7.906C-0.0138089 7.30641 -0.0436627 6.67265 0.0770037 6.059C0.454952 4.58344 1.1391 3.2039 2.085 2.01C2.46094 1.45109 2.90803 0.943493 3.415 0.5ZM1.647 6.552C1.62796 6.56628 1.60481 6.574 1.58101 6.574C1.52284 6.62677 1.47144 6.68656 1.42801 6.752C1.37828 7.1029 1.43946 7.46058 1.603 7.775C1.76371 8.18822 2.06212 8.5333 2.44784 8.75194C2.83355 8.97058 3.28292 9.04937 3.72001 8.975C3.80391 8.87527 3.85025 8.74932 3.85101 8.619C3.81844 8.57213 3.79596 8.51901 3.785 8.463C3.71893 8.4084 3.64556 8.36329 3.56701 8.329H3.306C3.19485 8.3079 3.08552 8.27814 2.979 8.24C2.78266 8.15159 2.60721 8.02268 2.46417 7.86172C2.32113 7.70075 2.21373 7.51138 2.149 7.306C2.093 7.131 2.098 6.873 2.062 6.706C2.00962 6.64976 1.94482 6.60654 1.87276 6.5798C1.80071 6.55306 1.72339 6.54354 1.647 6.552Z" fill="#C8C8C8"/>
</g>
<defs>
<clipPath id="clip0_1_4">
<rect width="7" height="11" fill="white"/>
</clipPath>
</defs>
</svg>
