<svg width="9" height="15" viewBox="0 0 9 15" fill="none" xmlns="http://www.w3.org/2000/svg">
<g clip-path="url(#clip0_1_2)">
<path fill-rule="evenodd" clip-rule="evenodd" d="M0 0.827999H1V2.828H2V0.827999H3V2.828H4V0.827999H5V2.828H6V0.827999H7V2.828H8V0.827999H9V10.828C9 10.828 5.445 13.383 5 13.828C4.555 14.273 4.438 14.266 4 13.828C3.562 13.39 0 10.828 0 10.828V0.827999ZM2.017 8.588H3.937V8.728C3.92842 8.90822 3.9663 9.08763 4.047 9.249C4.09418 9.31735 4.15926 9.3714 4.23509 9.40527C4.31093 9.43913 4.39461 9.45149 4.477 9.441C4.56156 9.45052 4.64714 9.43696 4.72461 9.40174C4.80208 9.36653 4.86857 9.31097 4.917 9.241C5.01075 9.04912 5.05281 8.8361 5.039 8.623C5.05349 8.4271 5.00095 8.2321 4.89 8.07C4.81698 8.00067 4.72955 7.94832 4.63396 7.91669C4.53836 7.88506 4.43696 7.87492 4.337 7.887H3.681V6.556H4.301C4.38309 6.56339 4.46574 6.55058 4.54174 6.51868C4.61774 6.48678 4.68478 6.43676 4.737 6.373C4.83626 6.2181 4.88355 6.0356 4.872 5.852C4.88028 5.69445 4.84791 5.53743 4.778 5.396C4.73892 5.33816 4.68462 5.29224 4.62109 5.2633C4.55757 5.23436 4.48729 5.22353 4.418 5.232C4.3512 5.2236 4.28339 5.23438 4.22248 5.26306C4.16157 5.29175 4.11007 5.33716 4.074 5.394C4.00704 5.54512 3.97688 5.70996 3.986 5.875V5.975H2.075V5.884C2.06982 5.61284 2.12041 5.34351 2.22362 5.0927C2.32683 4.8419 2.48047 4.61497 2.675 4.426C2.92037 4.21181 3.20583 4.04847 3.51482 3.94548C3.82382 3.84248 4.15019 3.80187 4.475 3.826C5.12572 3.75851 5.77697 3.94879 6.289 4.356C6.45077 4.50536 6.58059 4.68595 6.67065 4.88686C6.76071 5.08778 6.80914 5.30486 6.813 5.525C6.82704 5.88986 6.74092 6.2516 6.564 6.571C6.38323 6.85657 6.10389 7.06582 5.77901 7.159V7.178C6.1341 7.24348 6.45365 7.43486 6.679 7.717C6.90095 8.01161 7.0153 8.37335 7.00301 8.742C7.01622 9.0273 6.96694 9.31204 6.85864 9.57631C6.75034 9.84059 6.58563 10.078 6.37601 10.272C5.81968 10.6942 5.12705 10.8961 4.431 10.839C3.76562 10.8982 3.10382 10.6919 2.59 10.265C2.395 10.0647 2.24311 9.82661 2.1437 9.56535C2.04429 9.3041 1.99947 9.02525 2.012 8.746V8.588H2.017Z" fill="#C8C8C8"/>
</g>
<defs>
<clipPath id="clip0_1_2">
<rect width="9" height="15" fill="white"/>
</clipPath>
</defs>
</svg>
