<svg xmlns="http://www.w3.org/2000/svg" width="115" height="45" viewBox="0 0 115 45">
    <defs>
        <style>
            .cls-1 {
            fill-rule: evenodd;
            fill: white;
            }
        </style>
    </defs>
    <path id="bets4pro_3_1" data-name="bets4pro 3 1" class="cls-1"
          d="M7.065,2.055c1.276-.07,3.464,1,4.6,1.409C18.9,6.043,48.13,16.653,49.914,17.285a12.523,12.523,0,0,1,2.656,1.056,4.689,4.689,0,0,1,1.062,1.144,4.652,4.652,0,0,1,.443.7,11.487,11.487,0,0,1,1.5-.264,12.432,12.432,0,0,1,3.984,0,7.24,7.24,0,0,0,1.417.352c0.319-1.181,1.28-1.863,2.656-2.465,1.606-.593,38.815-14.094,41.079-14.878,2.234-.9,3.016-1.243,3.806-0.616a1.228,1.228,0,0,1,.443.7,6.7,6.7,0,0,1-.62,3.345c-0.424.432-1.081,0.424-1.328,1.056-0.357.913-.114,2.159-0.619,2.905-0.349.514-1.209,0.691-1.505,1.233-0.556,2.625-.366,3-0.974,3.521C102.437,16.353,89.782,25.466,87.1,27.409c-0.6.6-.2,1.095-0.443,2.025A5.125,5.125,0,0,1,85.5,31.371c-1.248,1.438-11.877,8.647-11.332,8.275C72.339,40.9,70.38,42.7,68.594,42.992c-0.945.154-4.75-1.779-5.223-1.937-0.56.306-1.221,0.561-1.771,0.792a11.278,11.278,0,0,1-8.5.088,13.538,13.538,0,0,1-1.594-.792c-0.749.274-3.043,1.222-3.276,1.321a3.81,3.81,0,0,1-1.859.528c-1.323-.069-4.016-2.269-5.666-3.433-1.974-1.393-4.6-3.3-6.728-4.754a30.8,30.8,0,0,1-4.692-3.61,4.247,4.247,0,0,1-.885-1.761c0-.381.019-0.991,0-1.145a2.161,2.161,0,0,0-.62-0.968c-1.41-.986-2.5-1.8-3.807-2.729-2.534-1.875-11.926-8.75-12.925-9.508-0.686-.546-0.563-1.84-0.8-2.729l-0.088-.792c-0.265-.509-1.085-0.6-1.416-1.056a5.7,5.7,0,0,1-.62-1.937L8.039,7.425C7.8,6.8,6.966,6.779,6.622,6.281A10.114,10.114,0,0,1,6,3.376,1.467,1.467,0,0,1,7.065,2.055Zm0.354,0.88a0.506,0.506,0,0,0-.443.352,7,7,0,0,0,.443,2.465c0.419,0.422,14.977,5.585,23.992,8.8a13.239,13.239,0,0,0-.266-1.673,4.236,4.236,0,0,0-1.151-1.761,8.171,8.171,0,0,0-2.213-.88C26.379,9.73,11.58,4.36,9.81,3.728A16.7,16.7,0,0,0,7.419,2.935ZM83.644,14.468c1.094-.391,18.971-6.9,22.576-8.187,0.592-.212,1.3-0.183,1.5-0.792a4.956,4.956,0,0,0,.265-2.465h-0.177a3.313,3.313,0,0,0-1.77.352c-1.38.536-7.651,2.78-9.208,3.433,2.561-1.075-5.926,2.1-10.447,3.786a5.679,5.679,0,0,0-1.416.528A4.527,4.527,0,0,0,83.644,14.468Zm-51.7,2.2c-0.095-.377-0.287-1.048-0.354-1.321-0.354-.122-1.756-0.609-2.3-0.792-0.912-.331-19.078-6.88-20.451-7.395,0.122,0.648.187,0.965,0.443,2.465a1.875,1.875,0,0,0,.885.792C11.462,10.769,29.828,16.045,31.942,16.669ZM83.2,16.581c1.871-.526,20.148-5.852,20.008-5.81,0.954-.286,1.908-0.213,2.39-0.968a8.854,8.854,0,0,0,.62-2.641c-1.84.595-19.806,7.213-22.841,8.275Zm20.627-5.194a4.426,4.426,0,0,1-1.416.44c-1.261.471-2.63,0.686-3.984,1.145-3.493,1.183-7.321,2.072-10.8,3.257-1.579.538-3.205,0.711-4.692,1.321l-0.354,1.056c5.817-1.224,17.044-3.7,19.211-4.138,0.86-.173,1.729.014,1.771-1.056A4.254,4.254,0,0,0,103.829,11.387Zm-92.78,0a18.186,18.186,0,0,0,.531,2.641c0.184,0.318,4.831,1.181,5.755,1.409,0.648,0.133,11.658,2.5,15.139,3.257-0.137-.387-0.221-0.69-0.354-1.144C30.753,17.158,14.078,12.317,11.049,11.387Zm20.185,0.088a7.032,7.032,0,0,1,.974,3.345c3.917,1.413,17.178,6.225,18.768,6.779a16.157,16.157,0,0,1,2.213-1.145,3.785,3.785,0,0,0-.708-0.968,11.439,11.439,0,0,0-2.922-1.408C47.029,17.211,33.6,12.379,31.234,11.475Zm35.5,6.163c-1.412.519-3.742,1.273-4.249,1.849-0.206.233-.816,1-0.62,1.232a17.664,17.664,0,0,1,1.948.968c3.56-1.312,16.036-5.809,19.034-6.867a11.417,11.417,0,0,1,.8-3.257C83.638,11.563,75.078,14.571,66.735,17.637Zm15.139,3.169c3.462-.5,16.009-2.363,16.378-2.641,2.232-1.685,3.531-2.561,4.072-2.993-13.563,2.958-16,3.469-20.008,4.314C82.2,19.772,82,20.444,81.874,20.807ZM32.739,19.486c-2.5-.513-16.831-3.609-20.1-4.314,0.593,0.43,1.209.9,2.036,1.5a15.706,15.706,0,0,0,2.3,1.585,19.732,19.732,0,0,0,4.25.792c3.3,0.447,10.905,1.494,11.952,1.761A7.2,7.2,0,0,1,32.739,19.486Zm-0.089-2.553c0.949,0.234,15.171,4.455,16.555,4.93a0.26,0.26,0,0,1,.088-0.088c-1.342-.506-16.1-5.83-17-6.162C32.415,16.092,32.484,16.378,32.651,16.933Zm33.11,4.842a0.463,0.463,0,0,0,.089.088c4.508-1.424,13.2-3.827,16.555-5.018,0.112-.354.183-0.847,0.266-1.232C80.566,16.384,69.859,20.24,65.761,21.775Zm-32.845-4.05c0.081,0.387.173,0.8,0.266,1.145,4.013,0.88,9.709,2.113,13.722,2.993a0.421,0.421,0,0,1,.088-0.088C44.238,21.034,35.385,18.355,32.916,17.725Zm49.223,0c-0.864.247-10.511,3.06-14.253,4.138,0.052,0,.082,0,0.088,0,1.726-.358,12.807-2.72,13.811-2.993C81.859,18.611,82.064,18.04,82.139,17.725ZM18.486,19.4c0.865,0.666,4.048,3.033,4.426,3.169a9.428,9.428,0,0,0,2.656.264c1.5,0.063,6.234.317,8.676,0.44-0.218-.527-0.585-1.257-0.8-1.761C28.632,20.849,23.3,20.1,18.486,19.4Zm63.122,2.113a14.136,14.136,0,0,0-.8,1.761c2.394-.157,11.073-0.44,11.509-0.792,0.852-.645,3.816-2.712,4.249-3.081C93.956,19.747,83.05,21.307,81.608,21.511ZM33.89,20.895c1.506,0.212,11.6,1.762,15.227,2.2a1.588,1.588,0,0,0,.177-0.088c-0.968-.2-14.595-3.157-15.847-3.345C33.552,20.01,33.733,20.519,33.89,20.895Zm31.517,2.2c0.03,0.03.054,0.052,0.089,0.088,3.193-.471,13.148-1.944,15.67-2.289,0.126-.349.384-1,0.443-1.233C78.819,20.221,66.164,22.933,65.407,23.1Zm-9.244-2.542a5.366,5.366,0,0,0-1.126.172l-2.165.689a10.891,10.891,0,0,0-6.322,9.076c0.174,0.085,2.652,1.058,3.984,1.673,0.352,0.162,1.222.468,1.594,0.616a1.953,1.953,0,0,1,1.682-.44l2.922-4.05a5.993,5.993,0,0,1,.177-1.144,4.263,4.263,0,0,1,1.5-2.2,4.58,4.58,0,0,1,1.328-.7,4.3,4.3,0,0,1,3.276,7.923,3.478,3.478,0,0,1-1.948.44c-0.145.1-.489,0.348-0.62,0.44-0.658.464-1.118,0.85-1.771,1.32-0.427.336-1.088,0.852-1.594,1.233a4.323,4.323,0,0,1-.177,1.321c-0.375.866-2.009,2.367-3.63,1.937a3.717,3.717,0,0,1-2.213-1.585,5.173,5.173,0,0,1-.443-1.145c-1.166-.429-2.269-0.921-3.453-1.408a7.248,7.248,0,0,0,.939,2.108,12.426,12.426,0,0,0,2.945,3.1,10.665,10.665,0,0,0,3.291,1.55,10.994,10.994,0,0,0,11.692-4.132,12.731,12.731,0,0,0,1.472-3.013,10.678,10.678,0,0,0-8.054-13.6A13.962,13.962,0,0,0,56.163,20.553ZM34.244,21.687c0.249,0.635.451,1.116,0.708,1.673,2.906-.02,10.752.474,13.457,0.616a2.326,2.326,0,0,1,.177-0.264C46.693,23.426,35.785,21.8,34.244,21.687Zm31.783,2.025c0.056,0.057.117,0.113,0.177,0.176,1.345-.03,13-0.516,13.9-0.616,0.2-.439.6-1.233,0.8-1.673C80.668,21.627,66.83,23.593,66.027,23.712Zm14.43,0.176c-0.171.577-1.054,2.155-1.239,2.641,1.539,0.128,6.686.609,7.083,0.352,0.434-.281,4.59-3.251,4.692-3.345C90.165,23.549,82.3,23.857,80.457,23.888Zm-56.394-.352c0.562,0.359,4.258,3.291,4.869,3.433,0.813,0.267,4.952-.442,6.905-0.44-0.348-.749-1.064-1.956-1.239-2.553C31.389,23.828,25.46,23.589,24.063,23.536Zm11.243,0.44c0.3,0.65.788,1.525,1.328,2.465l10.712-.968c0.128-.259.344-0.588,0.531-0.88C46.45,24.454,37.982,24.085,35.306,23.976Zm44.443,0c-0.345-.049-12.021.517-13.014,0.616,0.261,0.434.464,0.768,0.62,1.057,0.9,0.064,7.867.675,11.066,0.792C79.01,25.327,79.468,24.589,79.749,23.976Zm-19.388,1.5c-0.239.189-.619,0.179-0.885,0.352a3.524,3.524,0,0,0-1.328,1.849,3.02,3.02,0,0,0,3.718,3.521,3.07,3.07,0,0,0,1.859-4.05C63.2,25.979,62.147,25.432,60.361,25.473ZM37.077,27.145c0.358,0.494,1.693,2.448,2.036,2.817A49.556,49.556,0,0,1,46.2,28.026L46.9,26.177C44.978,26.246,38.552,26.984,37.077,27.145Zm23.9-.968a2.158,2.158,0,1,1,0,4.314A2.157,2.157,0,0,1,60.98,26.177ZM67.8,26.353c0.156,0.447.439,1.187,0.62,1.585,1.163,0.168,5.306,1.395,7.437,1.937a19.066,19.066,0,0,0,2.036-2.729C77.128,27.068,70.968,26.488,67.8,26.353ZM29.109,27.674a4.917,4.917,0,0,1,.177,1.585,4.249,4.249,0,0,0,2.125,2.553,10.731,10.731,0,0,0,1.859-.264c2.69-.772,4.823-1.388,5.135-1.5a17.233,17.233,0,0,1-2.036-2.817C35.791,27.233,30.753,27.779,29.109,27.674Zm56.748,0c-2.69-.146-5.269-0.306-7.171-0.44a17.311,17.311,0,0,1-2.036,2.817c0.781,0.221,3.885,1.087,5.046,1.409,0.657,0.182,1.575.563,2.125,0.176A4.163,4.163,0,0,0,85.858,27.674Zm-17.264.88c0,0.431.243,1.725,0.266,2.025,0.68,0.331,3.38,1.644,4.427,2.113A11.882,11.882,0,0,0,75.411,30.4C74.484,30.284,70.1,28.972,68.594,28.554Zm-22.575.176c-1.85.508-4.25,1.174-6.374,1.761a22.253,22.253,0,0,0,2.125,2.289,30.842,30.842,0,0,1,3.984-1.937C45.79,30.24,45.913,29.356,46.019,28.73ZM32.208,32.516c0.5,0.356,2.749,1.916,3.63,2.553a1.308,1.308,0,0,0,1.062,0c1.039-.44,3.1-1.456,4.161-1.937-0.513-.518-1.673-1.765-2.213-2.377C36.9,31.25,33.225,32.268,32.208,32.516Zm44-1.849c-0.448.518-1.652,1.8-2.213,2.377,1.267,0.662,4.124,2.3,4.958,2.025a9.049,9.049,0,0,0,1.062-.616c1.048-.741,2.715-1.842,2.833-2.025C81.482,32.152,77.394,31.08,76.208,30.667Zm-7.348.7a11.361,11.361,0,0,1-.443,2.905c0.35,0.265,1.152,1,1.505,1.232a34.211,34.211,0,0,0,2.833-2.289C71.728,32.814,70.128,31.987,68.86,31.371ZM42.3,33.308c0.442,0.4,2.053,1.713,2.744,2.2A4.331,4.331,0,0,0,46.2,34.452a9.969,9.969,0,0,1-.443-2.905A38.24,38.24,0,0,0,42.3,33.308Zm10.712-.088a11.452,11.452,0,0,1,1.771.792,1.812,1.812,0,0,1,0,3.169c-0.772.658-2.581-.381-3.276-0.7a1.321,1.321,0,0,0,.089.352,3.537,3.537,0,0,0,1.328,1.145,2.736,2.736,0,0,0,3.187-1.145,2.615,2.615,0,0,0-1.239-3.609A2.3,2.3,0,0,0,53.013,33.22Zm20.451,0.352a19.334,19.334,0,0,1-2.921,2.377C71.074,36.3,73.381,38.57,74.26,38.5c0.236-.209,3.364-2.375,3.9-2.729A40.653,40.653,0,0,1,73.463,33.572Zm-31.871,0a44.316,44.316,0,0,1-4.781,2.2c0.924,0.632,3.617,2.586,4.072,2.729,0.642,0.108,2.6-1.649,3.63-2.553A21.536,21.536,0,0,1,41.592,33.572ZM68.24,34.981a17.419,17.419,0,0,1-1.062,2.289c0.779-.458,1.28-0.783,2.213-1.32A8.385,8.385,0,0,1,68.24,34.981Zm-21.69.176c-0.183.19-.651,0.6-0.885,0.792a13.246,13.246,0,0,0,1.771,1.144A5.01,5.01,0,0,1,46.55,35.157Zm-1.416,1.233a23.009,23.009,0,0,1-3.541,2.729c0.585,0.411,3.657,3.016,4.427,2.465a30.033,30.033,0,0,0,2.39-2.993C48.131,38.127,47.377,38.03,45.133,36.389Zm24.789,0A34.421,34.421,0,0,1,66.558,38.5c1.278,1.391,1.864,3.474,3.364,2.993,0.657-.418,3.288-2.318,3.453-2.465A17.126,17.126,0,0,1,69.922,36.389Zm-3.9,2.377a12.64,12.64,0,0,1-1.771,1.673c0.5,0.156,3.421,1.65,4.161,1.585A12.375,12.375,0,0,1,66.027,38.766Zm-17.175.264a16.6,16.6,0,0,1-2.3,3.081c0.8,0.029,3.358-1.239,3.984-1.585A9.686,9.686,0,0,1,48.852,39.03Z"/>
</svg>
