<svg xmlns="http://www.w3.org/2000/svg" width="16" height="18" viewBox="0 0 16 18">
  <defs>
    <style>
      .cls-1 {
        fill: #fff;
        fill-rule: evenodd;
      }
    </style>
  </defs>
  <path id="classic-bets" class="cls-1" d="M266.189,157.169a30.46,30.46,0,0,0,3.522.1l0.352-.3h1.61c-0.017.067-.034,0.135-0.05,0.2,0.714,0.074.7,0.3,1.157-.2a8.369,8.369,0,0,1,3.17.405q0.024,1.419.05,2.838a3.789,3.789,0,0,0-.4.659c-0.06.46,0.484,1.171,0.1,1.773H276v4.105a2.049,2.049,0,0,0-1.057-.2V166.6c0.034,0.05.067,0.1,0.1,0.152-1.288.045-4.071-.143-4.679,0.253-1.088-.848-3.1.121-4.126-0.507h-0.1a6.523,6.523,0,0,0-.151-1.216,8.387,8.387,0,0,0,.151-1.875q-0.175-.835-0.352-1.672l0.3-.861c-1.258-.311-1.2-1.413-2.264-1.875l-0.654,1.469c-0.768,1.5-2.117,3.14-1.812,5.473a3.944,3.944,0,0,1-1.358,0,10.353,10.353,0,0,1,.6-3.953,7.444,7.444,0,0,0,.956-1.52,4.627,4.627,0,0,0-.151-1.723,7.177,7.177,0,0,1,.4-3.192l-0.352-.1q0.051-.888.1-1.774l0.754-.1c-0.185-1.373.082-2.925,1.812-2.737a2.122,2.122,0,0,1,.2-1.571c1.175-.475,2.245-0.422,2.365,1.115a1.236,1.236,0,0,0-.5.71h0.151v0.1a1.035,1.035,0,0,0,.7-0.456c1.193,0.544,4.3-.151,4.981.963a7.727,7.727,0,0,0-2.516.2q-0.452,1.216-.905,2.433l-0.906.405a2.573,2.573,0,0,0-1.459-.557,4.916,4.916,0,0,1,.05,2.584,0.684,0.684,0,0,0-.553.152l0.4,1.014h0.051v-0.761Zm1.71-5.016v0.253h0.353v-0.253H267.9Zm-0.352.355a0.656,0.656,0,0,0,.352.354c0.034-.1.067-0.2,0.1-0.3v-0.05h-0.453Zm0.2,6.131-0.553.253,3.975,4.308,0.553,0.405c0.621,0.865.987,1.629,2.516,1.621a5.3,5.3,0,0,0,.6-1.874,9.86,9.86,0,0,0-1.812-1.217,37.242,37.242,0,0,0-3.522-2.381C268.912,159.433,268.6,158.715,267.748,158.639Zm5.636,0.051-1.359.405a3.828,3.828,0,0,0,1.912,1.368C274.071,159.444,274.33,159.037,273.384,158.69ZM267.9,163q-0.25.633-.5,1.267a4.089,4.089,0,0,0,1.057,1.013,3.252,3.252,0,0,0,1.459-.4l-0.453-.507Z" transform="translate(-260 -149)"/>
</svg>
