<svg xmlns="http://www.w3.org/2000/svg" width="7" height="16" viewBox="0 0 7 16">
  <defs>
    <style>
      .cls-1 {
        fill: #c8c8c8;
        fill-rule: evenodd;
      }
    </style>
  </defs>
  <path id="arrow_2_2552_копия" data-name="arrow 2 2552 копия" class="cls-1" d="M919.732,471.73c-1.028-.935-2.517-2.727-3.177-2.73a1.5,1.5,0,0,0-.859.569l-1.631,1.441c-0.237.209-.486,0.461-0.73,0.72-0.648.656-.248,1.25,0.3,1.229a1.237,1.237,0,0,0,.9-0.531c0.444-.392.9-0.773,1.331-1.176a2.152,2.152,0,0,1,.6-0.53,2.708,2.708,0,0,1,.816.682,10.329,10.329,0,0,0,1.846,1.555A0.7,0.7,0,0,0,919.732,471.73Zm0-3c-1.028-.935-2.517-2.727-3.177-2.73a1.5,1.5,0,0,0-.859.569l-1.631,1.441c-0.237.209-.486,0.461-0.73,0.72-0.648.656-.248,1.25,0.3,1.229a1.237,1.237,0,0,0,.9-0.531c0.444-.392.9-0.773,1.331-1.176a2.152,2.152,0,0,1,.6-0.53,2.708,2.708,0,0,1,.816.682,10.329,10.329,0,0,0,1.846,1.555A0.7,0.7,0,0,0,919.732,468.73Z" transform="translate(-913 -461.5)"/>
</svg>
