<svg id="betcoin_icon" data-name="betcoin icon" xmlns="http://www.w3.org/2000/svg" width="40" height="33" viewBox="0 0 40 33">
  <defs>
    <style>
      .cls-1, .cls-2 {
        fill: #fba200;
      }

      .cls-1 {
        fill-rule: evenodd;
      }
    </style>
  </defs>
  <g id="tower_2" data-name="tower 2">
    <path id="Эллипс_1411_копия" data-name="Эллипс 1411 копия" class="cls-1" d="M1294.12,1165.82c0.92-.02,1.88.19,2.88,0.19,5.52,0,10-2.01,10-4.49a2.356,2.356,0,0,0-.54-1.46c-2.25,1.97-3.94,2.8-9.46,2.95a16.089,16.089,0,0,1-10-3.01c0.04,1.16,0,1.98,0,2.52,0,1.06,1.42.57,2,1.48C1290.19,1164.09,1293.18,1164.57,1294.12,1165.82Z" transform="translate(-1267 -1154)"/>
    <path id="Эллипс_1411_копия_3" data-name="Эллипс 1411 копия 3" class="cls-1" d="M1295.35,1167.96c0.37,0.01.76,0.02,1.17,0.02,5.79,0,7.56-1,9.91-2.99a2.351,2.351,0,0,1,.57,1.48c0,2.5-4.69,4.53-10.48,4.53a12.462,12.462,0,0,1-2.52,0C1294.45,1171.07,1295.31,1169.17,1295.35,1167.96Z" transform="translate(-1267 -1154)"/>
    <path id="Эллипс_1411_копия_4" data-name="Эллипс 1411 копия 4" class="cls-1" d="M1294,1176c1.09-.08,1.66-0.04,2.86-0.04,5.6,0,10.14-2.01,10.14-4.49a2.352,2.352,0,0,0-.55-1.46c-2.28,1.97-3.99,2.96-9.59,2.96-4.23,0-6.06.8-6.86-.97C1291.08,1174.38,1294.06,1174.1,1294,1176Z" transform="translate(-1267 -1154)"/>
    <path id="Эллипс_1411_копия_5" data-name="Эллипс 1411 копия 5" class="cls-1" d="M1298,1181c0,0.07.01-.02,0.09-0.02,5.47,0,8.91-2.02,8.91-4.51a2.455,2.455,0,0,0-.53-1.47c-2.23,1.98-3.91,2.97-9.38,2.97-0.78,0-2.46.07-3.09,0.03C1294.62,1178.04,1298.03,1179.2,1298,1181Z" transform="translate(-1267 -1154)"/>
    <ellipse id="Эллипс_1411" data-name="Эллипс 1411" class="cls-2" cx="30" cy="3.5" rx="10" ry="3.5"/>
  </g>
  <g id="tower">
    <path id="Эллипс_1411_копия_7" data-name="Эллипс 1411 копия 7" class="cls-1" d="M1288,1172.65a1.913,1.913,0,0,1-.21.86c-0.97,1.99-5.21,3.48-10.29,3.48-5.8,0-10.5-1.94-10.5-4.34,0-1.53,1.92-2.88,4.81-3.65a1.18,1.18,0,0,0-.14.75c0,2.4,4.7,4.35,10.5,4.35A10.666,10.666,0,0,0,1288,1172.65Z" transform="translate(-1267 -1154)"/>
    <path id="Эллипс_1411_копия_8" data-name="Эллипс 1411 копия 8" class="cls-1" d="M1272,1178a0.775,0.775,0,0,0,.2.52c0.97,1.99,5.21,3.49,10.29,3.49,5.8,0,10.5-1.95,10.5-4.36,0-1.53-1.1-2.87-3.99-3.65a0.906,0.906,0,0,1,0,1c-1.98,2.46-5.37,4.1-11.17,4.1C1275.74,1179.1,1274.62,1179.32,1272,1178Z" transform="translate(-1267 -1154)"/>
    <path id="Эллипс_1411_копия_9" data-name="Эллипс 1411 копия 9" class="cls-1" d="M1276,1183a0.815,0.815,0,0,0,.19.52c0.97,1.99,5.21,3.48,10.3,3.48,5.79,0,10.5-1.94,10.5-4.34,0-1.53-.98-2.06-2.99-2.66a3.077,3.077,0,0,0-1,1c-0.95,2.2-5.38,3.11-11.18,3.11A14.628,14.628,0,0,1,1276,1183Z" transform="translate(-1267 -1154)"/>
    <ellipse id="Эллипс_1411-2" data-name="Эллипс 1411" class="cls-2" cx="16.09" cy="14.08" rx="10.25" ry="3.42"/>
  </g>
</svg>
