<svg id="icon" xmlns="http://www.w3.org/2000/svg" width="10" height="10" viewBox="0 0 10 10">
  <defs>
    <style>
      .cls-1 {
        fill: #c8c8c8;
        fill-rule: evenodd;
      }
    </style>
  </defs>
  <path id="arrow_2_2573" data-name="arrow 2 2573" class="cls-1" d="M1300.64,201.966c1.05-.023,2.8.18,3.14-0.159a1.058,1.058,0,0,0,.14-0.751l0.06-1.621c0.01-.234,0-0.5-0.01-0.766-0.02-.689-0.56-0.8-0.83-0.51a0.874,0.874,0,0,0-.18.752c-0.02.441-.04,0.882-0.05,1.323a1.669,1.669,0,0,1-.02.6,2.052,2.052,0,0,1-.8.051,7.766,7.766,0,0,0-1.81.11C1299.73,201.27,1300.09,201.969,1300.64,201.966Z" transform="translate(-1300 -198)"/>
  <path id="arrow_2_2573_копия" data-name="arrow 2 2573 копия" class="cls-1" d="M1306.02,198.649c0.03,1.053-.18,2.82.16,3.167a1.091,1.091,0,0,0,.76.137l1.62,0.062c0.23,0.009.5,0,.77-0.014,0.69-.021.8-0.558,0.51-0.833a0.9,0.9,0,0,0-.76-0.181c-0.44-.017-0.88-0.045-1.32-0.05a1.593,1.593,0,0,1-.6-0.023,2.174,2.174,0,0,1-.05-0.8,7.661,7.661,0,0,0-.11-1.824C1306.72,197.735,1306.02,198.1,1306.02,198.649Z" transform="translate(-1300 -198)"/>
  <path id="arrow_2_2573_копия_2" data-name="arrow 2 2573 копия 2" class="cls-1" d="M1309.33,204.055c-1.03.023-2.78-.178-3.12,0.159a1.088,1.088,0,0,0-.13.746l-0.06,1.612a6.539,6.539,0,0,0,.01.762c0.02,0.686.55,0.8,0.82,0.507a0.865,0.865,0,0,0,.18-0.748c0.02-.438.04-0.876,0.05-1.315a1.646,1.646,0,0,1,.02-0.593,2.013,2.013,0,0,1,.79-0.051,7.786,7.786,0,0,0,1.8-.11C1310.23,204.747,1309.88,204.053,1309.33,204.055Z" transform="translate(-1300 -198)"/>
  <path id="arrow_2_2573_копия_3" data-name="arrow 2 2573 копия 3" class="cls-1" d="M1303.98,207.356c-0.03-1.046.17-2.8-.16-3.145a1.113,1.113,0,0,0-.76-0.136l-1.62-.062c-0.24-.009-0.5,0-0.77.014-0.69.021-.8,0.554-0.51,0.828a0.888,0.888,0,0,0,.75.179c0.45,0.017.89,0.045,1.33,0.05a1.614,1.614,0,0,1,.6.023,2.142,2.142,0,0,1,.05.8,7.538,7.538,0,0,0,.11,1.81C1303.28,208.263,1303.98,207.905,1303.98,207.356Z" transform="translate(-1300 -198)"/>
</svg>
