<svg xmlns="http://www.w3.org/2000/svg" width="13" height="16" viewBox="0 0 13 16">
  <defs>
    <style>
      .cls-1 {
        fill: #ffffff;
        fill-rule: evenodd;
      }
    </style>
  </defs>
  <path id="crown_2_2545_копия" data-name="crown 2 2545 копия" class="cls-1" d="M538.392,360.883c-0.072,1.319-.646,2.481-0.728,3.828H527.41c-0.033-1.343-.61-2.518-0.727-3.828l-0.331-.07a0.868,0.868,0,0,1-.265-0.557c-0.235-.406.271-0.71,0.463-0.9a0.822,0.822,0,0,1,.993.975,0.4,0.4,0,0,0-.133.348,2.928,2.928,0,0,0,1.985,1.6,5.687,5.687,0,0,0,1.522-1.184,14.04,14.04,0,0,1,1.124-1.67,1.916,1.916,0,0,1-.132-1.114,1.7,1.7,0,0,0,.331-0.279,0.691,0.691,0,0,1,.6.07c0.687,0.242.184,0.981,0.265,1.323a6.509,6.509,0,0,0,1.984,2.506,1.087,1.087,0,0,0,.86.348,3.811,3.811,0,0,0,1.787-1.671,0.8,0.8,0,0,1-.2-0.7,0.984,0.984,0,0,1,.992-0.557,1.107,1.107,0,0,1,.464,1.183,1.487,1.487,0,0,1-.4.279A0.332,0.332,0,0,1,538.392,360.883ZM527.543,365.2H537.6a4.276,4.276,0,0,1,.133,1.6c-0.638.343-2.1,0.139-2.977,0.139h-6.947a0.4,0.4,0,0,1-.33-0.07A3.015,3.015,0,0,1,527.543,365.2Z" transform="translate(-526 -354.5)"/>
</svg>
