<svg id="icon" xmlns="http://www.w3.org/2000/svg" width="10" height="10.031" viewBox="0 0 10 10.031">
  <defs>
    <style>
      .cls-1 {
        fill: #c8c8c8;
        fill-rule: evenodd;
      }
    </style>
  </defs>
  <path id="arrow_2_2573" data-name="arrow 2 2573" class="cls-1" d="M1508.36,268c-1.05.024-2.8-.18-3.14,0.162a1.07,1.07,0,0,0-.14.756l-0.06,1.633c-0.01.237,0,.5,0.01,0.772,0.02,0.695.56,0.81,0.83,0.514a0.886,0.886,0,0,0,.18-0.758c0.02-.444.04-0.888,0.05-1.332a1.7,1.7,0,0,1,.02-0.6,2.033,2.033,0,0,1,.8-0.051,7.814,7.814,0,0,0,1.81-.111C1509.27,268.7,1508.91,268,1508.36,268Z" transform="translate(-1505 -267.969)"/>
  <path id="arrow_2_2573_копия" data-name="arrow 2 2573 копия" class="cls-1" d="M1514.95,271.356c-0.03-1.045.17-2.8-.16-3.142a1.078,1.078,0,0,0-.75-0.136l-1.61-.062c-0.23-.009-0.5,0-0.76.014-0.69.021-.8,0.553-0.51,0.827a0.881,0.881,0,0,0,.75.179c0.44,0.017.87,0.045,1.31,0.05a1.614,1.614,0,0,1,.6.023,2.141,2.141,0,0,1,.05.8,7.536,7.536,0,0,0,.11,1.809C1514.25,272.263,1514.95,271.9,1514.95,271.356Z" transform="translate(-1505 -267.969)"/>
  <path id="arrow_2_2573_копия_2" data-name="arrow 2 2573 копия 2" class="cls-1" d="M1511.64,277.945c1.05-.023,2.8.178,3.15-0.159a1.088,1.088,0,0,0,.13-0.746l0.06-1.612a6.539,6.539,0,0,0-.01-0.762c-0.02-.686-0.55-0.8-0.83-0.508a0.9,0.9,0,0,0-.18.748c-0.01.439-.04,0.877-0.05,1.315a1.452,1.452,0,0,1-.02.594,2.052,2.052,0,0,1-.8.051,7.877,7.877,0,0,0-1.81.11C1510.73,277.253,1511.09,277.947,1511.64,277.945Z" transform="translate(-1505 -267.969)"/>
  <path id="arrow_2_2573_копия_3" data-name="arrow 2 2573 копия 3" class="cls-1" d="M1505.02,274.644c0.03,1.046-.17,2.8.16,3.145a1.113,1.113,0,0,0,.76.136l1.62,0.062c0.24,0.009.5,0,.77-0.014,0.69-.022.8-0.554,0.51-0.828a0.888,0.888,0,0,0-.75-0.179c-0.45-.017-0.89-0.045-1.33-0.05a1.614,1.614,0,0,1-.6-0.023,2.142,2.142,0,0,1-.05-0.8,7.55,7.55,0,0,0-.11-1.811C1505.72,273.737,1505.02,274.1,1505.02,274.644Z" transform="translate(-1505 -267.969)"/>
</svg>
