<svg id="Группа_135" data-name="Группа 135" xmlns="http://www.w3.org/2000/svg" width="14.5" height="17" viewBox="0 0 14.5 17">
  <defs>
    <style>
      .cls-1, .cls-2 {
        fill: #c8c8c8;
      }

      .cls-1 {
        fill-rule: evenodd;
      }

      .cls-2 {
        stroke: #27252b;
        stroke-linejoin: round;
        stroke-width: 0.5px;
        font-size: 14px;
        font-family: "Roboto Flex";
      }
    </style>
  </defs>
  <path id="lock_4043" data-name="lock 4043" class="cls-1" d="M948.389,655.163h3.674a3.661,3.661,0,0,1,1.537.116c0.48,0.311.374,0.967,0.374,1.751v1.537a3.589,3.589,0,0,1-.037.837,2.177,2.177,0,0,1-.731,1.167c-0.676.514-1.587,0.409-2.736,0.409H948.5a3.726,3.726,0,0,1-1.05-.059,2.089,2.089,0,0,1-1.406-1.439,4,4,0,0,1-.056-1.031v-1.888a1.793,1.793,0,0,1,.206-1.147,1.217,1.217,0,0,1,.994-0.253v-1.129l0.018-.583a3.014,3.014,0,0,1,1.743-2.238l0.619-.175a2.41,2.41,0,0,1,1.181.1,2.768,2.768,0,0,1,1.743,1.517,2.357,2.357,0,0,1,.225,1.537,1.1,1.1,0,0,1-.188.136,1.358,1.358,0,0,1-.787-0.039,1.618,1.618,0,0,1-.225-0.836,1.734,1.734,0,0,0-.843-1.031,2.72,2.72,0,0,0-.525-0.156,1.307,1.307,0,0,0-.993.253C948.354,653.064,948.384,653.8,948.389,655.163Zm1.462,1.673a1.2,1.2,0,0,1-.15.039,0.95,0.95,0,0,0-.356.272,0.966,0.966,0,0,0-.037.973,0.95,0.95,0,0,0,.206.214l0.075,0.019V659c0.034,0.045.041,0.108,0.075,0.156a1.393,1.393,0,0,0,.206.156c0.552,0.012.519-.392,0.506-0.954a0.8,0.8,0,0,0,.375-0.953A0.833,0.833,0,0,0,949.851,656.836Z" transform="translate(-939.5 -647.5)"/>
  <text id="_" data-name="?" class="cls-2" x="2.834" y="13.713">?</text>
</svg>
