<svg id="Группа_134" data-name="Группа 134" xmlns="http://www.w3.org/2000/svg" width="15.969" height="10" viewBox="0 0 15.969 10">
  <defs>
    <style>
      .cls-1, .cls-2 {
        fill: #c8c8c8;
      }

      .cls-1 {
        fill-rule: evenodd;
      }

      .cls-2 {
        font-size: 12px;
        font-family: "Roboto Flex";
        font-weight: 700;
      }
    </style>
  </defs>
  <path id="person_4055" data-name="person 4055" class="cls-1" d="M830.4,651c3.974-.115,3.813,4.258,1.051,4.94a2.7,2.7,0,0,1-2.962-3.176C828.83,651.661,829.53,651.6,830.4,651Zm-0.286,5.646c2.615-.052,4.136.546,5.159,1.941,0.252,0.343,1.05,1.375.574,2.029-0.312.428-1.636,0.265-2.389,0.265-2.268,0-5.087.31-7.166-.088a1.289,1.289,0,0,1-.192-0.353,1.52,1.52,0,0,1,.287-1.412A4.483,4.483,0,0,1,828.684,657,10.332,10.332,0,0,0,830.118,656.649Z" transform="translate(-820 -651)"/>
  <text id="_" data-name="+" class="cls-2" x="0.333" y="9.214">+</text>
</svg>
