<svg xmlns="http://www.w3.org/2000/svg" xmlns:xlink="http://www.w3.org/1999/xlink" width="18" height="11" viewBox="0 0 18 11">
  <defs>
    <style>
      .cls-1 {
        fill: #ffffff;
      }

      .cls-2, .cls-3 {
        fill-rule: evenodd;
      }

      .cls-2 {
        opacity: 0.5;
      }
    </style>
  </defs>
  <g id="icon" class="cls-1">
    <path id="e1" data-name="e1" class="cls-2" d="M380.009,73.352A7,7,0,0,0,394,73c0,0.3-.063.489-0.032,0.442A8.249,8.249,0,0,1,387,77a8.656,8.656,0,0,1-7-4C379.992,72.987,380,73.236,380.009,73.352Z" transform="translate(-376 -69)"/>
    <path id="e2" data-name="e2" class="cls-3" d="M389.991,75.648A7,7,0,0,0,376,76c0-.3.063-0.489,0.032-0.442A8.249,8.249,0,0,1,383,72a8.656,8.656,0,0,1,7,4C390.008,76.013,390,75.764,389.991,75.648Z" transform="translate(-376 -69)"/>
  </g>
</svg>
